<?xml version="1.0" encoding="UTF-8" standalone="no"?>
<!DOCTYPE svg PUBLIC "-//W3C//DTD SVG 1.1//EN"
 "http://www.w3.org/Graphics/SVG/1.1/DTD/svg11.dtd">
<!-- Generated by graphviz version 2.40.1 (20161225.0304)
 -->
<!-- Title: dependencies Pages: 1 -->
<svg width="2517pt" height="284pt"
 viewBox="0.00 0.00 2517.00 284.00" xmlns="http://www.w3.org/2000/svg" xmlns:xlink="http://www.w3.org/1999/xlink">
<g id="graph0" class="graph" transform="scale(1 1) rotate(0) translate(4 280)">
<title>dependencies</title>
<polygon fill="#ffffff" stroke="transparent" points="-4,4 -4,-280 2513,-280 2513,4 -4,4"/>
<text text-anchor="start" x="1233.5091" y="-42.4" font-family="sans-serif" font-weight="bold" font-size="14.00" fill="#000000">Legend</text>
<polygon fill="#ffffb3" stroke="transparent" points="1020.5,-10 1020.5,-30 1040.5,-30 1040.5,-10 1020.5,-10"/>
<text text-anchor="start" x="1044.129" y="-15.4" font-family="sans-serif" font-size="14.00" fill="#000000"> &#160;Declarations</text>
<polygon fill="#8dd3c7" stroke="transparent" points="1133.5,-10 1133.5,-30 1153.5,-30 1153.5,-10 1133.5,-10"/>
<text text-anchor="start" x="1157.2251" y="-15.4" font-family="sans-serif" font-size="14.00" fill="#000000"> &#160;Module</text>
<polygon fill="#80b1d3" stroke="transparent" points="1219.5,-10 1219.5,-30 1239.5,-30 1239.5,-10 1219.5,-10"/>
<text text-anchor="start" x="1243.2812" y="-15.4" font-family="sans-serif" font-size="14.00" fill="#000000"> &#160;Bootstrap</text>
<polygon fill="#fdb462" stroke="transparent" points="1316.5,-10 1316.5,-30 1336.5,-30 1336.5,-10 1316.5,-10"/>
<text text-anchor="start" x="1340.1732" y="-15.4" font-family="sans-serif" font-size="14.00" fill="#000000"> &#160;Providers</text>
<polygon fill="#fb8072" stroke="transparent" points="1412.5,-10 1412.5,-30 1432.5,-30 1432.5,-10 1412.5,-10"/>
<text text-anchor="start" x="1436.2258" y="-15.4" font-family="sans-serif" font-size="14.00" fill="#000000"> &#160;Exports</text>
<g id="clust1" class="cluster">
<title>cluster_AppModule</title>
<polygon fill="none" stroke="#000000" stroke-dasharray="1,5" points="8,-70 8,-268 2501,-268 2501,-70 8,-70"/>
</g>
<g id="clust2" class="cluster">
<title>cluster_AppModule_declarations</title>
<polygon fill="none" stroke="#000000" points="1418,-78 1418,-130 2493,-130 2493,-78 1418,-78"/>
</g>
<g id="clust10" class="cluster">
<title>cluster_AppModule_imports</title>
<polygon fill="none" stroke="#000000" points="510,-78 510,-130 1410,-130 1410,-78 510,-78"/>
</g>
<g id="clust12" class="cluster">
<title>cluster_AppModule_bootstrap</title>
<polygon fill="none" stroke="#000000" points="1227,-208 1227,-260 1351,-260 1351,-208 1227,-208"/>
</g>
<g id="clust13" class="cluster">
<title>cluster_AppModule_providers</title>
<polygon fill="none" stroke="#000000" points="16,-78 16,-130 502,-130 502,-78 16,-78"/>
</g>
<!-- AppComponent -->
<g id="node1" class="node">
<title>AppComponent</title>
<polygon fill="#ffffb3" stroke="#000000" points="2484.9399,-122 2379.0601,-122 2379.0601,-86 2484.9399,-86 2484.9399,-122"/>
<text text-anchor="middle" x="2432" y="-99.8" font-family="Times,serif" font-size="14.00" fill="#000000">AppComponent</text>
</g>
<!-- AppModule -->
<g id="node8" class="node">
<title>AppModule</title>
<polygon fill="#8dd3c7" stroke="#000000" points="1330.6571,-187 1327.6571,-191 1306.6571,-191 1303.6571,-187 1247.3429,-187 1247.3429,-151 1330.6571,-151 1330.6571,-187"/>
<text text-anchor="middle" x="1289" y="-164.8" font-family="Times,serif" font-size="14.00" fill="#000000">AppModule</text>
</g>
<!-- AppComponent&#45;&gt;AppModule -->
<g id="edge1" class="edge">
<title>AppComponent&#45;&gt;AppModule</title>
<path fill="none" stroke="#000000" d="M2432,-122.3228C2432,-145.6602 2432,-183 2432,-183 2432,-183 1340.6948,-183 1340.6948,-183"/>
<polygon fill="#000000" stroke="#000000" points="1340.6948,-179.5001 1330.6948,-183 1340.6947,-186.5001 1340.6948,-179.5001"/>
</g>
<!-- ChatBoxComponent -->
<g id="node2" class="node">
<title>ChatBoxComponent</title>
<polygon fill="#ffffb3" stroke="#000000" points="2361.6108,-122 2230.3892,-122 2230.3892,-86 2361.6108,-86 2361.6108,-122"/>
<text text-anchor="middle" x="2296" y="-99.8" font-family="Times,serif" font-size="14.00" fill="#000000">ChatBoxComponent</text>
</g>
<!-- ChatBoxComponent&#45;&gt;AppModule -->
<g id="edge2" class="edge">
<title>ChatBoxComponent&#45;&gt;AppModule</title>
<path fill="none" stroke="#000000" d="M2296,-122.2921C2296,-144.2057 2296,-178 2296,-178 2296,-178 1340.6697,-178 1340.6697,-178"/>
<polygon fill="#000000" stroke="#000000" points="1340.6697,-174.5001 1330.6697,-178 1340.6696,-181.5001 1340.6697,-174.5001"/>
</g>
<!-- ChatFormComponent -->
<g id="node3" class="node">
<title>ChatFormComponent</title>
<polygon fill="#ffffb3" stroke="#000000" points="2212.108,-122 2073.892,-122 2073.892,-86 2212.108,-86 2212.108,-122"/>
<text text-anchor="middle" x="2143" y="-99.8" font-family="Times,serif" font-size="14.00" fill="#000000">ChatFormComponent</text>
</g>
<!-- ChatFormComponent&#45;&gt;AppModule -->
<g id="edge3" class="edge">
<title>ChatFormComponent&#45;&gt;AppModule</title>
<path fill="none" stroke="#000000" d="M2143,-122.0267C2143,-142.7672 2143,-174 2143,-174 2143,-174 1340.7683,-174 1340.7683,-174"/>
<polygon fill="#000000" stroke="#000000" points="1340.7683,-170.5001 1330.7683,-174 1340.7683,-177.5001 1340.7683,-170.5001"/>
</g>
<!-- ChatMessageComponent -->
<g id="node4" class="node">
<title>ChatMessageComponent</title>
<polygon fill="#ffffb3" stroke="#000000" points="2056.252,-122 1899.748,-122 1899.748,-86 2056.252,-86 2056.252,-122"/>
<text text-anchor="middle" x="1978" y="-99.8" font-family="Times,serif" font-size="14.00" fill="#000000">ChatMessageComponent</text>
</g>
<!-- ChatMessageComponent&#45;&gt;AppModule -->
<g id="edge4" class="edge">
<title>ChatMessageComponent&#45;&gt;AppModule</title>
<path fill="none" stroke="#000000" d="M1978,-122.1061C1978,-141.3391 1978,-169 1978,-169 1978,-169 1340.8053,-169 1340.8053,-169"/>
<polygon fill="#000000" stroke="#000000" points="1340.8053,-165.5001 1330.8053,-169 1340.8053,-172.5001 1340.8053,-165.5001"/>
</g>
<!-- ChatRoomComponent -->
<g id="node5" class="node">
<title>ChatRoomComponent</title>
<polygon fill="#ffffb3" stroke="#000000" points="1882.0014,-122 1739.9986,-122 1739.9986,-86 1882.0014,-86 1882.0014,-122"/>
<text text-anchor="middle" x="1811" y="-99.8" font-family="Times,serif" font-size="14.00" fill="#000000">ChatRoomComponent</text>
</g>
<!-- ChatRoomComponent&#45;&gt;AppModule -->
<g id="edge5" class="edge">
<title>ChatRoomComponent&#45;&gt;AppModule</title>
<path fill="none" stroke="#000000" d="M1811,-122.302C1811,-140.2699 1811,-165 1811,-165 1811,-165 1340.8351,-165 1340.8351,-165"/>
<polygon fill="#000000" stroke="#000000" points="1340.8351,-161.5001 1330.8351,-165 1340.835,-168.5001 1340.8351,-161.5001"/>
</g>
<!-- ContactsComponent -->
<g id="node6" class="node">
<title>ContactsComponent</title>
<polygon fill="#ffffb3" stroke="#000000" points="1722.3244,-122 1591.6756,-122 1591.6756,-86 1722.3244,-86 1722.3244,-122"/>
<text text-anchor="middle" x="1657" y="-99.8" font-family="Times,serif" font-size="14.00" fill="#000000">ContactsComponent</text>
</g>
<!-- ContactsComponent&#45;&gt;AppModule -->
<g id="edge6" class="edge">
<title>ContactsComponent&#45;&gt;AppModule</title>
<path fill="none" stroke="#000000" d="M1657,-122.027C1657,-138.3976 1657,-160 1657,-160 1657,-160 1340.856,-160 1340.856,-160"/>
<polygon fill="#000000" stroke="#000000" points="1340.856,-156.5001 1330.856,-160 1340.856,-163.5001 1340.856,-156.5001"/>
</g>
<!-- ContactInfoComponent -->
<g id="node7" class="node">
<title>ContactInfoComponent</title>
<polygon fill="#ffffb3" stroke="#000000" points="1574.2007,-122 1425.7993,-122 1425.7993,-86 1574.2007,-86 1574.2007,-122"/>
<text text-anchor="middle" x="1500" y="-99.8" font-family="Times,serif" font-size="14.00" fill="#000000">ContactInfoComponent</text>
</g>
<!-- ContactInfoComponent&#45;&gt;AppModule -->
<g id="edge7" class="edge">
<title>ContactInfoComponent&#45;&gt;AppModule</title>
<path fill="none" stroke="#000000" d="M1500,-122.1871C1500,-137.1824 1500,-156 1500,-156 1500,-156 1340.6868,-156 1340.6868,-156"/>
<polygon fill="#000000" stroke="#000000" points="1340.6868,-152.5001 1330.6868,-156 1340.6868,-159.5001 1340.6868,-152.5001"/>
</g>
<!-- AppComponent  -->
<g id="node15" class="node">
<title>AppComponent </title>
<polygon fill="#80b1d3" stroke="#000000" points="1343.439,-252 1234.561,-252 1234.561,-216 1343.439,-216 1343.439,-252"/>
<text text-anchor="middle" x="1289" y="-229.8" font-family="Times,serif" font-size="14.00" fill="#000000">AppComponent </text>
</g>
<!-- AppModule&#45;&gt;AppComponent  -->
<g id="edge14" class="edge">
<title>AppModule&#45;&gt;AppComponent </title>
<path fill="none" stroke="#000000" stroke-dasharray="1,5" d="M1289,-187.1061C1289,-187.1061 1289,-205.991 1289,-205.991"/>
<polygon fill="#000000" stroke="#000000" points="1285.5001,-205.9909 1289,-215.991 1292.5001,-205.991 1285.5001,-205.9909"/>
</g>
<!-- BrowserModule -->
<g id="node9" class="node">
<title>BrowserModule</title>
<polygon fill="#8dd3c7" stroke="#000000" points="1402.4734,-122 1399.4734,-126 1378.4734,-126 1375.4734,-122 1295.5266,-122 1295.5266,-86 1402.4734,-86 1402.4734,-122"/>
<text text-anchor="middle" x="1349" y="-99.8" font-family="Times,serif" font-size="14.00" fill="#000000">BrowserModule</text>
</g>
<!-- BrowserModule&#45;&gt;AppModule -->
<g id="edge8" class="edge">
<title>BrowserModule&#45;&gt;AppModule</title>
<path fill="none" stroke="#000000" d="M1313.1708,-122.1061C1313.1708,-122.1061 1313.1708,-140.991 1313.1708,-140.991"/>
<polygon fill="#000000" stroke="#000000" points="1309.6708,-140.9909 1313.1708,-150.991 1316.6708,-140.991 1309.6708,-140.9909"/>
</g>
<!-- FormsModule -->
<g id="node10" class="node">
<title>FormsModule</title>
<polygon fill="#8dd3c7" stroke="#000000" points="1277.8288,-122 1274.8288,-126 1253.8288,-126 1250.8288,-122 1182.1712,-122 1182.1712,-86 1277.8288,-86 1277.8288,-122"/>
<text text-anchor="middle" x="1230" y="-99.8" font-family="Times,serif" font-size="14.00" fill="#000000">FormsModule</text>
</g>
<!-- FormsModule&#45;&gt;AppModule -->
<g id="edge9" class="edge">
<title>FormsModule&#45;&gt;AppModule</title>
<path fill="none" stroke="#000000" d="M1262.418,-122.1061C1262.418,-122.1061 1262.418,-140.991 1262.418,-140.991"/>
<polygon fill="#000000" stroke="#000000" points="1258.918,-140.9909 1262.418,-150.991 1265.918,-140.991 1258.918,-140.9909"/>
</g>
<!-- HttpClientModule -->
<g id="node11" class="node">
<title>HttpClientModule</title>
<polygon fill="#8dd3c7" stroke="#000000" points="1164.1611,-122 1161.1611,-126 1140.1611,-126 1137.1611,-122 1045.8389,-122 1045.8389,-86 1164.1611,-86 1164.1611,-122"/>
<text text-anchor="middle" x="1105" y="-99.8" font-family="Times,serif" font-size="14.00" fill="#000000">HttpClientModule</text>
</g>
<!-- HttpClientModule&#45;&gt;AppModule -->
<g id="edge10" class="edge">
<title>HttpClientModule&#45;&gt;AppModule</title>
<path fill="none" stroke="#000000" d="M1105,-122.1871C1105,-137.1824 1105,-156 1105,-156 1105,-156 1237.2476,-156 1237.2476,-156"/>
<polygon fill="#000000" stroke="#000000" points="1237.2476,-159.5001 1247.2476,-156 1237.2475,-152.5001 1237.2476,-159.5001"/>
</g>
<!-- routing -->
<g id="node12" class="node">
<title>routing</title>
<polygon fill="#8dd3c7" stroke="#000000" points="1027.4435,-122 1024.4435,-126 1003.4435,-126 1000.4435,-122 970.5565,-122 970.5565,-86 1027.4435,-86 1027.4435,-122"/>
<text text-anchor="middle" x="999" y="-99.8" font-family="Times,serif" font-size="14.00" fill="#000000">routing</text>
</g>
<!-- routing&#45;&gt;AppModule -->
<g id="edge11" class="edge">
<title>routing&#45;&gt;AppModule</title>
<path fill="none" stroke="#000000" d="M999,-122.027C999,-138.3976 999,-160 999,-160 999,-160 1237.1412,-160 1237.1412,-160"/>
<polygon fill="#000000" stroke="#000000" points="1237.1413,-163.5001 1247.1412,-160 1237.1412,-156.5001 1237.1413,-163.5001"/>
</g>
<!-- AngularFireModule.initializeApp(args) -->
<g id="node13" class="node">
<title>AngularFireModule.initializeApp(args)</title>
<polygon fill="#8dd3c7" stroke="#000000" points="952.7057,-122 949.7057,-126 928.7057,-126 925.7057,-122 715.2943,-122 715.2943,-86 952.7057,-86 952.7057,-122"/>
<text text-anchor="middle" x="834" y="-99.8" font-family="Times,serif" font-size="14.00" fill="#000000">AngularFireModule.initializeApp(args)</text>
</g>
<!-- AngularFireModule.initializeApp(args)&#45;&gt;AppModule -->
<g id="edge12" class="edge">
<title>AngularFireModule.initializeApp(args)&#45;&gt;AppModule</title>
<path fill="none" stroke="#000000" d="M834,-122.302C834,-140.2699 834,-165 834,-165 834,-165 1237.0103,-165 1237.0103,-165"/>
<polygon fill="#000000" stroke="#000000" points="1237.0103,-168.5001 1247.0103,-165 1237.0102,-161.5001 1237.0103,-168.5001"/>
</g>
<!-- AngularFireDatabaseModule -->
<g id="node14" class="node">
<title>AngularFireDatabaseModule</title>
<polygon fill="#8dd3c7" stroke="#000000" points="697.771,-122 694.771,-126 673.771,-126 670.771,-122 518.229,-122 518.229,-86 697.771,-86 697.771,-122"/>
<text text-anchor="middle" x="608" y="-99.8" font-family="Times,serif" font-size="14.00" fill="#000000">AngularFireDatabaseModule</text>
</g>
<!-- AngularFireDatabaseModule&#45;&gt;AppModule -->
<g id="edge13" class="edge">
<title>AngularFireDatabaseModule&#45;&gt;AppModule</title>
<path fill="none" stroke="#000000" d="M608,-122.1061C608,-141.3391 608,-169 608,-169 608,-169 1237.1703,-169 1237.1703,-169"/>
<polygon fill="#000000" stroke="#000000" points="1237.1703,-172.5001 1247.1703,-169 1237.1702,-165.5001 1237.1703,-172.5001"/>
</g>
<!-- MessagesService -->
<g id="node16" class="node">
<title>MessagesService</title>
<ellipse fill="#fdb462" stroke="#000000" cx="416" cy="-104" rx="77.5627" ry="18"/>
<text text-anchor="middle" x="416" y="-99.8" font-family="Times,serif" font-size="14.00" fill="#000000">MessagesService</text>
</g>
<!-- MessagesService&#45;&gt;AppModule -->
<g id="edge15" class="edge">
<title>MessagesService&#45;&gt;AppModule</title>
<path fill="none" stroke="#000000" d="M416,-122.0267C416,-142.7672 416,-174 416,-174 416,-174 1237.1875,-174 1237.1875,-174"/>
<polygon fill="#000000" stroke="#000000" points="1237.1875,-177.5001 1247.1875,-174 1237.1875,-170.5001 1237.1875,-177.5001"/>
</g>
<!-- UsersService -->
<g id="node17" class="node">
<title>UsersService</title>
<ellipse fill="#fdb462" stroke="#000000" cx="258" cy="-104" rx="61.9519" ry="18"/>
<text text-anchor="middle" x="258" y="-99.8" font-family="Times,serif" font-size="14.00" fill="#000000">UsersService</text>
</g>
<!-- UsersService&#45;&gt;AppModule -->
<g id="edge16" class="edge">
<title>UsersService&#45;&gt;AppModule</title>
<path fill="none" stroke="#000000" d="M258,-122.2921C258,-144.2057 258,-178 258,-178 258,-178 1237.3066,-178 1237.3066,-178"/>
<polygon fill="#000000" stroke="#000000" points="1237.3067,-181.5001 1247.3066,-178 1237.3066,-174.5001 1237.3067,-181.5001"/>
</g>
<!-- AngularFirestore -->
<g id="node18" class="node">
<title>AngularFirestore</title>
<ellipse fill="#fdb462" stroke="#000000" cx="101" cy="-104" rx="77.0023" ry="18"/>
<text text-anchor="middle" x="101" y="-99.8" font-family="Times,serif" font-size="14.00" fill="#000000">AngularFirestore</text>
</g>
<!-- AngularFirestore&#45;&gt;AppModule -->
<g id="edge17" class="edge">
<title>AngularFirestore&#45;&gt;AppModule</title>
<path fill="none" stroke="#000000" d="M101,-122.3228C101,-145.6602 101,-183 101,-183 101,-183 1237.0674,-183 1237.0674,-183"/>
<polygon fill="#000000" stroke="#000000" points="1237.0674,-186.5001 1247.0674,-183 1237.0674,-179.5001 1237.0674,-186.5001"/>
</g>
</g>
</svg>
